<svg xmlns="http://www.w3.org/2000/svg" viewBox="450 2770 980 1000" width="1000" height="1000"><rect x="450" y="2770" width="980" height="1000" fill="#17202b"/><g font-family="monospace"><text x="480" y="2805" fill="white" font-size="24">E1M1 measured geometry</text><text x="480" y="2835" fill="#becbd6" font-size="14">Sector labels: ID · floor/ceiling (Doom units)</text><path d="M1344,3360 L1344,3264 L1376,3264 L1376,3360 Z" fill="#775633" fill-rule="evenodd" stroke="none"/><path d="M1344,3200 L1344,3104 L1376,3104 L1376,3200 Z" fill="#584d76" fill-rule="evenodd" stroke="none"/><path d="M928,3392 L928,3360 L1184,3360 L1184,3392 Z M928,3360 L896,3360 L896,3104 L928,3104 Z M928,3104 L928,3072 L1184,3072 L1184,3104 Z" fill="#536442" fill-rule="evenodd" stroke="none"/><path d="M1152,3648 L1088,3648 L1024,3648 L960,3648 L832,3552 L704,3552 L704,3360 L704,3104 L704,2944 L832,2944 L968,2880 L1216,2880 L1344,2880 L1344,3104 L1216,3072 L1184,3072 L928,3072 L896,3072 L896,3104 L896,3360 L896,3392 L928,3392 L1184,3392 L1216,3392 L1344,3360 L1344,3552 L1280,3552 Z" fill="#775633" fill-rule="evenodd" stroke="none"/><path d="M1216,3392 L1216,3360 L1184,3360 L928,3360 L928,3104 L1184,3104 L1216,3104 L1216,3072 L1344,3104 L1344,3200 L1344,3264 L1344,3360 Z" fill="#584d76" fill-rule="evenodd" stroke="none"/><path d="M1088,3680 L1024,3680 L1024,3648 L1088,3648 Z" fill="#286c69" fill-rule="evenodd" stroke="none"/><path d="M704,3104 L704,3360 L680,3360 L512,3328 L512,3304 L496,3304 L496,3160 L512,3160 L512,3136 L680,3104 Z" fill="#6a4356" fill-rule="evenodd" stroke="none"/><line x1="1088" y1="3680" x2="1024" y2="3680" stroke="#eef0e8" stroke-width="3" /><line x1="1024" y1="3680" x2="1024" y2="3648" stroke="#eef0e8" stroke-width="3" /><line x1="1088" y1="3648" x2="1088" y2="3680" stroke="#eef0e8" stroke-width="3" /><line x1="1152" y1="3648" x2="1088" y2="3648" stroke="#eef0e8" stroke-width="3" /><line x1="1024" y1="3648" x2="960" y2="3648" stroke="#eef0e8" stroke-width="3" /><line x1="1280" y1="3552" x2="1152" y2="3648" stroke="#eef0e8" stroke-width="3" /><line x1="960" y1="3648" x2="832" y2="3552" stroke="#eef0e8" stroke-width="3" /><line x1="1344" y1="3552" x2="1280" y2="3552" stroke="#eef0e8" stroke-width="3" /><line x1="832" y1="3552" x2="704" y2="3552" stroke="#eef0e8" stroke-width="3" /><line x1="896" y1="3392" x2="928" y2="3392" stroke="#eef0e8" stroke-width="3" /><line x1="928" y1="3392" x2="928" y2="3360" stroke="#eef0e8" stroke-width="3" /><line x1="928" y1="3360" x2="896" y2="3360" stroke="#eef0e8" stroke-width="3" /><line x1="896" y1="3360" x2="896" y2="3392" stroke="#eef0e8" stroke-width="3" /><line x1="1184" y1="3392" x2="1216" y2="3392" stroke="#eef0e8" stroke-width="3" /><line x1="1216" y1="3392" x2="1216" y2="3360" stroke="#eef0e8" stroke-width="3" /><line x1="1216" y1="3360" x2="1184" y2="3360" stroke="#eef0e8" stroke-width="3" /><line x1="1184" y1="3360" x2="1184" y2="3392" stroke="#eef0e8" stroke-width="3" /><line x1="896" y1="3072" x2="896" y2="3104" stroke="#eef0e8" stroke-width="3" /><line x1="896" y1="3104" x2="928" y2="3104" stroke="#eef0e8" stroke-width="3" /><line x1="928" y1="3104" x2="928" y2="3072" stroke="#eef0e8" stroke-width="3" /><line x1="928" y1="3072" x2="896" y2="3072" stroke="#eef0e8" stroke-width="3" /><line x1="1216" y1="3072" x2="1184" y2="3072" stroke="#eef0e8" stroke-width="3" /><line x1="1184" y1="3072" x2="1184" y2="3104" stroke="#eef0e8" stroke-width="3" /><line x1="1184" y1="3104" x2="1216" y2="3104" stroke="#eef0e8" stroke-width="3" /><line x1="1216" y1="3104" x2="1216" y2="3072" stroke="#eef0e8" stroke-width="3" /><line x1="1344" y1="3360" x2="1344" y2="3552" stroke="#eef0e8" stroke-width="3" /><line x1="1344" y1="3264" x2="1344" y2="3360" stroke="#f3b85b" stroke-width="1.5" stroke-dasharray="6 4"/><line x1="1344" y1="3200" x2="1344" y2="3264" stroke="#eef0e8" stroke-width="3" /><line x1="1344" y1="2880" x2="1344" y2="3104" stroke="#eef0e8" stroke-width="3" /><line x1="1344" y1="3104" x2="1344" y2="3200" stroke="#f3b85b" stroke-width="1.5" stroke-dasharray="6 4"/><line x1="1376" y1="3200" x2="1376" y2="3104" stroke="#f3b85b" stroke-width="1.5" stroke-dasharray="6 4"/><line x1="1376" y1="3360" x2="1376" y2="3264" stroke="#f3b85b" stroke-width="1.5" stroke-dasharray="6 4"/><line x1="1344" y1="3264" x2="1376" y2="3264" stroke="#eef0e8" stroke-width="3" /><line x1="1376" y1="3360" x2="1344" y2="3360" stroke="#eef0e8" stroke-width="3" /><line x1="1376" y1="3200" x2="1344" y2="3200" stroke="#eef0e8" stroke-width="3" /><line x1="1344" y1="3104" x2="1376" y2="3104" stroke="#eef0e8" stroke-width="3" /><line x1="1184" y1="3392" x2="928" y2="3392" stroke="#f3b85b" stroke-width="1.5" stroke-dasharray="6 4"/><line x1="1344" y1="3360" x2="1216" y2="3392" stroke="#f3b85b" stroke-width="1.5" stroke-dasharray="6 4"/><line x1="1216" y1="3072" x2="1344" y2="3104" stroke="#f3b85b" stroke-width="1.5" stroke-dasharray="6 4"/><line x1="704" y1="2944" x2="832" y2="2944" stroke="#eef0e8" stroke-width="3" /><line x1="832" y1="2944" x2="968" y2="2880" stroke="#eef0e8" stroke-width="3" /><line x1="968" y1="2880" x2="1216" y2="2880" stroke="#eef0e8" stroke-width="3" /><line x1="1088" y1="3648" x2="1024" y2="3648" stroke="#f3b85b" stroke-width="1.5" stroke-dasharray="6 4"/><line x1="928" y1="3104" x2="1184" y2="3104" stroke="#f3b85b" stroke-width="1.5" stroke-dasharray="6 4"/><line x1="1184" y1="3360" x2="928" y2="3360" stroke="#f3b85b" stroke-width="1.5" stroke-dasharray="6 4"/><line x1="928" y1="3360" x2="928" y2="3104" stroke="#f3b85b" stroke-width="1.5" stroke-dasharray="6 4"/><line x1="896" y1="3360" x2="896" y2="3104" stroke="#f3b85b" stroke-width="1.5" stroke-dasharray="6 4"/><line x1="928" y1="3072" x2="1184" y2="3072" stroke="#f3b85b" stroke-width="1.5" stroke-dasharray="6 4"/><line x1="704" y1="3552" x2="704" y2="3360" stroke="#eef0e8" stroke-width="3" /><line x1="704" y1="3104" x2="704" y2="2944" stroke="#eef0e8" stroke-width="3" /><line x1="704" y1="3104" x2="704" y2="3360" stroke="#f3b85b" stroke-width="1.5" stroke-dasharray="6 4"/><line x1="512" y1="3328" x2="512" y2="3304" stroke="#eef0e8" stroke-width="3" /><line x1="512" y1="3160" x2="512" y2="3136" stroke="#eef0e8" stroke-width="3" /><line x1="512" y1="3136" x2="680" y2="3104" stroke="#eef0e8" stroke-width="3" /><line x1="680" y1="3104" x2="704" y2="3104" stroke="#eef0e8" stroke-width="3" /><line x1="704" y1="3360" x2="680" y2="3360" stroke="#eef0e8" stroke-width="3" /><line x1="680" y1="3360" x2="512" y2="3328" stroke="#eef0e8" stroke-width="3" /><line x1="496" y1="3160" x2="496" y2="3304" stroke="#f3b85b" stroke-width="1.5" stroke-dasharray="6 4"/><line x1="512" y1="3304" x2="496" y2="3304" stroke="#eef0e8" stroke-width="3" /><line x1="496" y1="3160" x2="512" y2="3160" stroke="#eef0e8" stroke-width="3" /><line x1="1344" y1="2880" x2="1216" y2="2880" stroke="#f3b85b" stroke-width="1.5" stroke-dasharray="6 4"/><text x="1359.5" y="3343.5" font-size="14" text-anchor="middle" fill="white" paint-order="stroke" stroke="#17202b" stroke-width="4">S14 · 8/192<title>Floor 8, ceiling 192; FLAT5_5 / FLAT5_5</title></text><text x="1359.5" y="3183.5" font-size="14" text-anchor="middle" fill="white" paint-order="stroke" stroke="#17202b" stroke-width="4">S15 · 8/192<title>Floor 8, ceiling 192; FLAT5_5 / FLAT5_5</title></text><text x="945.5" y="3377" font-size="14" text-anchor="middle" fill="white" paint-order="stroke" stroke="#17202b" stroke-width="4">S37 · -8/120<title>Floor -8, ceiling 120; FLAT14 / CEIL3_5</title></text><text x="994" y="3516" font-size="14" text-anchor="middle" fill="white" paint-order="stroke" stroke="#17202b" stroke-width="4">S38 · 0/72<title>Floor 0, ceiling 72; FLOOR4_8 / CEIL3_5</title></text><text x="1220.5" y="3237" font-size="14" text-anchor="middle" fill="white" paint-order="stroke" stroke="#17202b" stroke-width="4">S39 · -16/200<title>Floor -16, ceiling 200; FLAT14 / CEIL3_5</title></text><text x="1041" y="3664.5" font-size="14" text-anchor="middle" fill="white" paint-order="stroke" stroke="#17202b" stroke-width="4">S40 · 0/72<title>Floor 0, ceiling 72; FLOOR4_8 / CEIL3_5</title></text><text x="596.75" y="3236" font-size="14" text-anchor="middle" fill="white" paint-order="stroke" stroke="#17202b" stroke-width="4">S41 · -8/120<title>Floor -8, ceiling 120; FLOOR4_8 / CEIL3_5</title></text><circle cx="1056" cy="3616" r="9" fill="#7cfc93"/><text x="1070" y="3616" font-size="16" fill="#7cfc93">spawn</text><text x="480" y="3735" fill="#becbd6" font-size="13">White: one-sided boundary · amber: two-sided boundary (not necessarily passable)</text><text x="480" y="3755" fill="#becbd6" font-size="13">920 × 840 map units · 16 map units/Engine unit</text></g></svg>
